<?xml version="1.0" encoding="UTF-8"?> <svg xmlns="http://www.w3.org/2000/svg" xmlns:xlink="http://www.w3.org/1999/xlink" version="1.1" width="2048px" height="863px" style="shape-rendering:geometricPrecision; text-rendering:geometricPrecision; image-rendering:optimizeQuality; fill-rule:evenodd; clip-rule:evenodd"><g><path style="opacity:1" fill="#fefefe" d="M -0.5,-0.5 C 682.167,-0.5 1364.83,-0.5 2047.5,-0.5C 2047.5,287.167 2047.5,574.833 2047.5,862.5C 1364.83,862.5 682.167,862.5 -0.5,862.5C -0.5,574.833 -0.5,287.167 -0.5,-0.5 Z"></path></g><g><path style="opacity:1" fill="#e6e6e6" d="M 603.5,289.5 C 577.415,284.478 551.415,279.145 525.5,273.5C 524.791,272.596 523.791,272.263 522.5,272.5C 522.829,259.989 522.495,247.655 521.5,235.5C 521.535,219.698 513.869,209.865 498.5,206C 420.927,191.718 343.594,176.884 266.5,161.5C 314.802,143.61 364.468,139.444 415.5,149C 486.77,163.96 544.27,200.46 588,258.5C 594.792,267.912 600.959,277.746 606.5,288C 605.263,288.232 604.263,288.732 603.5,289.5 Z"></path></g><g><path style="opacity:1" fill="#565657" d="M 223.5,155.5 C 237.826,157.499 252.16,159.499 266.5,161.5C 343.594,176.884 420.927,191.718 498.5,206C 513.869,209.865 521.535,219.698 521.5,235.5C 521.5,247.833 521.5,260.167 521.5,272.5C 516.291,271.942 511.291,270.942 506.5,269.5C 506.817,265.298 506.483,261.298 505.5,257.5C 504.329,247.158 498.663,240.658 488.5,238C 411.63,223.36 334.63,209.36 257.5,196C 241.794,193.436 232.294,199.936 229,215.5C 228.333,356.833 228.333,498.167 229,639.5C 232.58,652.588 241.08,659.588 254.5,660.5C 261.056,658.944 267.722,657.944 274.5,657.5C 277.152,657.59 279.485,656.924 281.5,655.5C 351.896,643.742 422.229,631.575 492.5,619C 500.186,614.801 504.519,608.301 505.5,599.5C 506.493,590.682 506.827,581.682 506.5,572.5C 510.763,562.963 515.763,553.963 521.5,545.5C 521.667,576.835 521.5,608.168 521,639.5C 519.456,645.591 516.623,650.924 512.5,655.5C 509.131,657.515 505.798,659.515 502.5,661.5C 442.026,672.527 382.026,685.193 322.5,699.5C 293.49,705.224 264.49,711.058 235.5,717C 228.34,718.352 221.673,717.186 215.5,713.5C 213.205,710.703 210.705,708.036 208,705.5C 205.929,700.621 204.263,695.621 203,690.5C 202.333,520.5 202.333,350.5 203,180.5C 204.617,167.731 211.45,159.397 223.5,155.5 Z"></path></g><g><path style="opacity:1" fill="#f3f3f3" d="M 335.5,189.5 C 365.21,194.575 394.877,199.909 424.5,205.5C 425.575,209.923 423.908,211.923 419.5,211.5C 390.754,207.583 362.254,202.583 334,196.5C 333.167,193.829 333.667,191.496 335.5,189.5 Z"></path></g><g><path style="opacity:1" fill="#fcfcfc" d="M 505.5,257.5 C 506.08,261.649 505.414,265.316 503.5,268.5C 478.601,263.953 453.768,258.953 429,253.5C 423.945,254.027 419.945,256.361 417,260.5C 366.696,343.12 316.029,425.453 265,507.5C 264.517,508.448 264.351,509.448 264.5,510.5C 264.317,512.936 264.984,515.103 266.5,517C 270.249,518.018 273.916,519.185 277.5,520.5C 277.966,524.227 278.466,528.227 279,532.5C 279.566,534.723 280.4,536.723 281.5,538.5C 281.5,538.833 281.5,539.167 281.5,539.5C 283.167,542.786 283.5,546.12 282.5,549.5C 276.969,553.658 276.302,558.491 280.5,564C 344.88,578.96 409.38,593.46 474,607.5C 480.046,606.713 485.213,604.213 489.5,600C 490.386,598.385 491.386,596.885 492.5,595.5C 496.736,588.703 500.736,581.703 504.5,574.5C 505.493,582.65 505.826,590.983 505.5,599.5C 504.519,608.301 500.186,614.801 492.5,619C 422.229,631.575 351.896,643.742 281.5,655.5C 278.848,655.41 276.515,656.076 274.5,657.5C 267.722,657.944 261.056,658.944 254.5,660.5C 241.08,659.588 232.58,652.588 229,639.5C 228.333,498.167 228.333,356.833 229,215.5C 232.294,199.936 241.794,193.436 257.5,196C 334.63,209.36 411.63,223.36 488.5,238C 498.663,240.658 504.329,247.158 505.5,257.5 Z"></path></g><g><path style="opacity:1" fill="#e6e6e6" d="M 185.5,187.5 C 185.5,351.5 185.5,515.5 185.5,679.5C 184.669,664.672 184.169,649.672 184,634.5C 126.913,585.34 94.2467,523.007 86,447.5C 79.3077,351.493 111.974,272.159 184,209.5C 184.171,201.989 184.671,194.655 185.5,187.5 Z"></path></g><g><path style="opacity:1" fill="#5e7cc4" d="M 223.5,155.5 C 211.45,159.397 204.617,167.731 203,180.5C 202.333,350.5 202.333,520.5 203,690.5C 204.263,695.621 205.929,700.621 208,705.5C 210.705,708.036 213.205,710.703 215.5,713.5C 197.995,708.668 187.995,697.335 185.5,679.5C 185.5,515.5 185.5,351.5 185.5,187.5C 189.85,167.163 202.516,156.496 223.5,155.5 Z"></path></g><g><path style="opacity:1" fill="#b7b8bb" d="M 521.5,235.5 C 522.495,247.655 522.829,259.989 522.5,272.5C 523.791,272.263 524.791,272.596 525.5,273.5C 523.901,273.768 522.568,273.434 521.5,272.5C 521.5,260.167 521.5,247.833 521.5,235.5 Z"></path></g><g><path style="opacity:1" fill="#7aa3fe" d="M 503.5,268.5 C 504.209,269.404 505.209,269.737 506.5,269.5C 511.291,270.942 516.291,271.942 521.5,272.5C 522.568,273.434 523.901,273.768 525.5,273.5C 551.415,279.145 577.415,284.478 603.5,289.5C 605.265,290.461 607.265,290.795 609.5,290.5C 606.021,299.134 601.521,307.134 596,314.5C 591.879,323.963 586.879,332.963 581,341.5C 543.015,412.143 504.015,482.143 464,551.5C 463.517,552.448 463.351,553.448 463.5,554.5C 396.929,540.567 330.595,525.9 264.5,510.5C 264.351,509.448 264.517,508.448 265,507.5C 316.029,425.453 366.696,343.12 417,260.5C 419.945,256.361 423.945,254.027 429,253.5C 453.768,258.953 478.601,263.953 503.5,268.5 Z"></path></g><g><path style="opacity:1" fill="#b5b7bb" d="M 505.5,257.5 C 506.483,261.298 506.817,265.298 506.5,269.5C 505.209,269.737 504.209,269.404 503.5,268.5C 505.414,265.316 506.08,261.649 505.5,257.5 Z"></path></g><g><path style="opacity:1" fill="#575757" d="M 1343.5,290.5 C 1353,289.824 1359.5,293.824 1363,302.5C 1363.67,388.167 1363.67,473.833 1363,559.5C 1360.32,567.268 1354.82,571.268 1346.5,571.5C 1337.7,570.872 1332.54,566.206 1331,557.5C 1330.33,472.833 1330.33,388.167 1331,303.5C 1332.68,296.653 1336.85,292.32 1343.5,290.5 Z"></path></g><g><path style="opacity:1" fill="#575757" d="M 936.5,490.5 C 918.679,489.167 900.512,488.5 882,488.5C 863.664,488.5 845.497,488.833 827.5,489.5C 826.662,489.842 826.328,490.508 826.5,491.5C 817.704,515.887 808.704,540.22 799.5,564.5C 791.757,571.176 783.423,572.009 774.5,567C 769.798,562.078 768.298,556.245 770,549.5C 800.821,466.236 831.821,383.236 863,300.5C 872.016,290.679 882.516,288.846 894.5,295C 897.372,297.537 899.872,300.37 902,303.5C 932.191,384.405 962.191,465.405 992,546.5C 995.796,564.064 988.629,571.898 970.5,570C 967.705,568.207 965.205,566.04 963,563.5C 953.864,539.258 945.031,514.924 936.5,490.5 Z"></path></g><g><path style="opacity:1" fill="#fefefe" d="M 513.5,306.5 C 521.859,309.083 530.526,310.749 539.5,311.5C 547.119,313.322 554.786,315.322 562.5,317.5C 536.91,363.333 511.91,409.333 487.5,455.5C 455.449,449.311 423.449,442.811 391.5,436C 378.625,432.391 365.625,429.224 352.5,426.5C 379.288,381.609 406.621,336.942 434.5,292.5C 437.106,291.348 439.773,291.182 442.5,292C 466.208,296.678 489.875,301.511 513.5,306.5 Z"></path></g><g><path style="opacity:1" fill="#5f7dc4" d="M 617.5,292.5 C 620.438,293.628 623.438,294.795 626.5,296C 636.861,307.742 641.694,321.576 641,337.5C 639.238,340.699 637.238,343.699 635,346.5C 633.882,348.765 633.049,351.099 632.5,353.5C 594.984,417.198 557.984,481.198 521.5,545.5C 515.763,553.963 510.763,562.963 506.5,572.5C 505.5,572.833 504.833,573.5 504.5,574.5C 500.736,581.703 496.736,588.703 492.5,595.5C 491.323,593.897 491.489,592.564 493,591.5C 494.196,584.292 492.863,577.625 489,571.5C 484.176,564.842 478.009,559.842 470.5,556.5C 471.858,551.286 474.358,546.619 478,542.5C 522.981,459.524 568.147,376.857 613.5,294.5C 614.622,293.37 615.956,292.703 617.5,292.5 Z"></path></g><g><path style="opacity:1" fill="#8badfb" d="M 539.5,311.5 C 530.526,310.749 521.859,309.083 513.5,306.5C 515.92,306.708 518.253,306.374 520.5,305.5C 521.192,306.025 521.692,306.692 522,307.5C 524.456,306.85 526.79,305.85 529,304.5C 530.722,304.611 530.888,305.111 529.5,306C 530.22,308.122 531.387,308.622 533,307.5C 535.438,308.568 537.605,309.902 539.5,311.5 Z"></path></g><g><path style="opacity:1" fill="#fbfbfb" d="M 880.5,335.5 C 881.376,335.369 882.043,335.702 882.5,336.5C 897.454,377.669 911.788,419.002 925.5,460.5C 896.167,460.5 866.833,460.5 837.5,460.5C 851.677,418.797 866.011,377.13 880.5,335.5 Z"></path></g><g><path style="opacity:1" fill="#e6e6e6" d="M 632.5,353.5 C 655.184,462.505 626.517,555.005 546.5,631C 539.207,635.634 532.541,640.968 526.5,647C 521.402,649.191 516.735,652.024 512.5,655.5C 516.623,650.924 519.456,645.591 521,639.5C 521.5,608.168 521.667,576.835 521.5,545.5C 557.984,481.198 594.984,417.198 632.5,353.5 Z"></path></g><g><path style="opacity:1" fill="#cfcfcf" d="M 1790.5,367.5 C 1783.13,367.317 1775.8,367.65 1768.5,368.5C 1769.26,367.732 1770.26,367.232 1771.5,367C 1778.01,366.18 1784.35,366.347 1790.5,367.5 Z"></path></g><g><path style="opacity:1" fill="#565656" d="M 1203.5,557.5 C 1203.83,550.137 1203.5,542.803 1202.5,535.5C 1201.89,535.624 1201.56,535.957 1201.5,536.5C 1188.05,560.468 1167.39,572.134 1139.5,571.5C 1100.23,570.395 1077.73,550.395 1072,511.5C 1071.33,466.833 1071.33,422.167 1072,377.5C 1076.19,368.823 1083.02,365.657 1092.5,368C 1097.57,369.406 1101.07,372.572 1103,377.5C 1103.33,418.833 1103.67,460.167 1104,501.5C 1106.86,528.194 1121.69,541.861 1148.5,542.5C 1179.05,541.452 1196.55,525.785 1201,495.5C 1201.33,456.167 1201.67,416.833 1202,377.5C 1206.23,368.97 1213.06,365.803 1222.5,368C 1228.03,369.526 1231.53,373.026 1233,378.5C 1233.67,439.5 1233.67,500.5 1233,561.5C 1226.2,572.685 1217.54,574.351 1207,566.5C 1204.95,563.852 1203.78,560.852 1203.5,557.5 Z"></path></g><g><path style="opacity:1" fill="#565656" d="M 1612.5,477.5 C 1570.17,477.5 1527.83,477.5 1485.5,477.5C 1485.19,480.385 1485.53,483.052 1486.5,485.5C 1487.22,509.786 1498.22,527.619 1519.5,539C 1521.81,539.662 1524.15,540.162 1526.5,540.5C 1528.51,541.924 1530.85,542.59 1533.5,542.5C 1560.86,545.733 1581.7,535.733 1596,512.5C 1602.68,504.494 1610.52,503.328 1619.5,509C 1623.26,512.743 1624.43,517.243 1623,522.5C 1617.25,539.589 1606.41,552.422 1590.5,561C 1561.11,574.137 1531.44,574.804 1501.5,563C 1476.23,549.701 1460.73,528.868 1455,500.5C 1450.92,475.923 1451.92,451.589 1458,427.5C 1477.67,378.578 1513.5,359.411 1565.5,370C 1597.74,380.576 1617.91,402.409 1626,435.5C 1626.5,442.5 1627,449.5 1627.5,456.5C 1628.57,468.081 1623.57,475.081 1612.5,477.5 Z"></path></g><g><path style="opacity:1" fill="#575757" d="M 1790.5,367.5 C 1811.62,368.315 1829.46,376.315 1844,391.5C 1849.26,397.869 1852.1,405.202 1852.5,413.5C 1852.63,419.085 1850.29,423.252 1845.5,426C 1837.42,428.302 1830.92,426.135 1826,419.5C 1819.81,405.669 1809.31,397.502 1794.5,395C 1782.39,393.36 1770.72,394.693 1759.5,399C 1741.95,409.523 1738.95,423.19 1750.5,440C 1755.04,443.768 1760.04,446.768 1765.5,449C 1787.46,453.988 1809.13,459.988 1830.5,467C 1857.87,479.386 1867.37,500.219 1859,529.5C 1851.71,546.792 1839.21,558.626 1821.5,565C 1796.48,573.544 1771.48,573.544 1746.5,565C 1728.58,558.076 1716.41,545.576 1710,527.5C 1708.78,513.396 1715.28,507.562 1729.5,510C 1731.67,511.5 1733.83,513 1736,514.5C 1748.32,539.074 1768.15,548.908 1795.5,544C 1806.49,543.086 1815.66,538.586 1823,530.5C 1824.65,528.391 1825.81,526.057 1826.5,523.5C 1827.97,520.983 1828.64,518.15 1828.5,515C 1828.49,512.967 1828.16,511.134 1827.5,509.5C 1825.93,501.426 1821.26,495.926 1813.5,493C 1807.74,491.147 1802.07,489.147 1796.5,487C 1774.79,483.409 1754.12,476.742 1734.5,467C 1725.39,460.73 1718.72,452.564 1714.5,442.5C 1713.87,439.603 1712.87,436.936 1711.5,434.5C 1708.32,408.684 1717.99,389.517 1740.5,377C 1749.41,372.709 1758.74,369.875 1768.5,368.5C 1775.8,367.65 1783.13,367.317 1790.5,367.5 Z"></path></g><g><path style="opacity:1" fill="#fcfcfc" d="M 1592.5,441.5 C 1592.32,444.879 1592.32,448.045 1592.5,451C 1557.5,451.5 1522.5,451.667 1487.5,451.5C 1487.5,448.833 1487.5,446.167 1487.5,443.5C 1490.36,422.611 1501.36,407.778 1520.5,399C 1543.78,391.255 1563.95,396.089 1581,413.5C 1587.47,421.738 1591.3,431.072 1592.5,441.5 Z"></path></g><g><path style="opacity:1" fill="#bbbbbb" d="M 1711.5,434.5 C 1712.87,436.936 1713.87,439.603 1714.5,442.5C 1712.35,440.383 1711.35,437.716 1711.5,434.5 Z"></path></g><g><path style="opacity:1" fill="#e7e2f7" d="M 343.5,441.5 C 387.016,451.435 430.349,461.935 473.5,473C 477.293,473.739 478.126,475.572 476,478.5C 471.632,484.308 467.632,490.308 464,496.5C 464.298,500.202 462.631,501.869 459,501.5C 415.307,491.525 371.807,480.858 328.5,469.5C 328.519,467.94 328.852,466.44 329.5,465C 334.825,457.48 339.491,449.647 343.5,441.5 Z"></path></g><g><path style="opacity:1" fill="#cfcfcf" d="M 1592.5,441.5 C 1593.48,444.962 1593.81,448.629 1593.5,452.5C 1557.83,452.5 1522.17,452.5 1486.5,452.5C 1486.19,449.287 1486.52,446.287 1487.5,443.5C 1487.5,446.167 1487.5,448.833 1487.5,451.5C 1522.5,451.667 1557.5,451.5 1592.5,451C 1592.32,448.045 1592.32,444.879 1592.5,441.5 Z"></path></g><g><path style="opacity:1" fill="#f4f7fb" d="M 609.5,290.5 C 612.698,289.964 615.365,290.631 617.5,292.5C 615.956,292.703 614.622,293.37 613.5,294.5C 568.147,376.857 522.981,459.524 478,542.5C 474.358,546.619 471.858,551.286 470.5,556.5C 467.99,556.073 465.657,555.407 463.5,554.5C 463.351,553.448 463.517,552.448 464,551.5C 504.015,482.143 543.015,412.143 581,341.5C 586.879,332.963 591.879,323.963 596,314.5C 601.521,307.134 606.021,299.134 609.5,290.5 Z"></path></g><g><path style="opacity:1" fill="#a6a6a6" d="M 1612.5,477.5 C 1570.67,478.499 1528.67,478.832 1486.5,478.5C 1486.5,480.833 1486.5,483.167 1486.5,485.5C 1485.53,483.052 1485.19,480.385 1485.5,477.5C 1527.83,477.5 1570.17,477.5 1612.5,477.5 Z"></path></g><g><path style="opacity:1" fill="#797979" d="M 827.5,489.5 C 845.497,488.833 863.664,488.5 882,488.5C 900.512,488.5 918.679,489.167 936.5,490.5C 936.167,490.5 935.833,490.5 935.5,490.5C 899.671,489.502 863.671,489.168 827.5,489.5 Z"></path></g><g><path style="opacity:1" fill="#e0e0e0" d="M 827.5,489.5 C 863.671,489.168 899.671,489.502 935.5,490.5C 899.094,490.174 862.761,490.507 826.5,491.5C 826.328,490.508 826.662,489.842 827.5,489.5 Z"></path></g><g><path style="opacity:1" fill="#bdbdbd" d="M 1827.5,509.5 C 1828.16,511.134 1828.49,512.967 1828.5,515C 1828.64,518.15 1827.97,520.983 1826.5,523.5C 1827.23,518.87 1827.56,514.203 1827.5,509.5 Z"></path></g><g><path style="opacity:1" fill="#dfd7f9" d="M 281.5,539.5 C 281.5,539.167 281.5,538.833 281.5,538.5C 281.661,535.472 280.994,532.639 279.5,530C 279.833,529.5 280.167,529 280.5,528.5C 313.179,536.452 345.846,544.286 378.5,552C 372.144,552.139 365.811,551.639 359.5,550.5C 352.241,549.035 345.074,547.368 338,545.5C 334.356,546.295 330.689,546.962 327,547.5C 311.888,544.539 296.722,541.872 281.5,539.5 Z"></path></g><g><path style="opacity:1" fill="#aeaeae" d="M 1526.5,540.5 C 1529.15,540.41 1531.49,541.076 1533.5,542.5C 1530.85,542.59 1528.51,541.924 1526.5,540.5 Z"></path></g><g><path style="opacity:1" fill="#959595" d="M 1201.5,536.5 C 1201.56,535.957 1201.89,535.624 1202.5,535.5C 1203.5,542.803 1203.83,550.137 1203.5,557.5C 1202.83,550.5 1202.17,543.5 1201.5,536.5 Z"></path></g><g><path style="opacity:1" fill="#e6e1f6" d="M 277.5,520.5 C 322.808,530.672 368.142,541.172 413.5,552C 428.198,555.887 442.865,559.554 457.5,563C 461.704,564.231 465.704,565.731 469.5,567.5C 469.5,570.167 469.5,572.833 469.5,575.5C 455.377,573.753 441.377,571.92 427.5,570C 439.131,573.813 451.131,576.98 463.5,579.5C 459.761,580.218 456.095,580.552 452.5,580.5C 457.167,582.167 461.833,583.833 466.5,585.5C 465.5,585.833 464.5,586.167 463.5,586.5C 444.091,583.305 424.757,579.805 405.5,576C 398.841,575.121 392.174,574.788 385.5,575C 413.065,581.223 440.732,586.89 468.5,592C 469.099,593.622 469.766,595.122 470.5,596.5C 471.557,597.206 471.224,597.539 469.5,597.5C 408.78,583.984 348.114,570.151 287.5,556C 285.563,553.929 283.896,551.762 282.5,549.5C 283.5,546.12 283.167,542.786 281.5,539.5C 296.722,541.872 311.888,544.539 327,547.5C 330.689,546.962 334.356,546.295 338,545.5C 345.074,547.368 352.241,549.035 359.5,550.5C 365.811,551.639 372.144,552.139 378.5,552C 345.846,544.286 313.179,536.452 280.5,528.5C 280.167,529 279.833,529.5 279.5,530C 280.994,532.639 281.661,535.472 281.5,538.5C 280.4,536.723 279.566,534.723 279,532.5C 278.466,528.227 277.966,524.227 277.5,520.5 Z"></path></g><g><path style="opacity:1" fill="#516aa4" d="M 264.5,510.5 C 330.595,525.9 396.929,540.567 463.5,554.5C 465.657,555.407 467.99,556.073 470.5,556.5C 478.009,559.842 484.176,564.842 489,571.5C 492.863,577.625 494.196,584.292 493,591.5C 491.489,592.564 491.323,593.897 492.5,595.5C 491.386,596.885 490.386,598.385 489.5,600C 485.213,604.213 480.046,606.713 474,607.5C 409.38,593.46 344.88,578.96 280.5,564C 276.302,558.491 276.969,553.658 282.5,549.5C 283.896,551.762 285.563,553.929 287.5,556C 348.114,570.151 408.78,583.984 469.5,597.5C 470.946,598.613 472.613,598.78 474.5,598C 482.844,592.706 484.677,585.539 480,576.5C 477.621,572.62 474.454,569.62 470.5,567.5C 470.167,567.5 469.833,567.5 469.5,567.5C 465.704,565.731 461.704,564.231 457.5,563C 442.865,559.554 428.198,555.887 413.5,552C 368.142,541.172 322.808,530.672 277.5,520.5C 273.916,519.185 270.249,518.018 266.5,517C 264.984,515.103 264.317,512.936 264.5,510.5 Z"></path></g><g><path style="opacity:1" fill="#d2c9fb" d="M 470.5,567.5 C 474.454,569.62 477.621,572.62 480,576.5C 484.677,585.539 482.844,592.706 474.5,598C 472.613,598.78 470.946,598.613 469.5,597.5C 471.224,597.539 471.557,597.206 470.5,596.5C 469.975,591.324 469.308,586.157 468.5,581C 470.145,576.723 470.811,572.223 470.5,567.5 Z"></path></g><g><path style="opacity:1" fill="#dfd8f9" d="M 317.5,554.5 C 339.368,554.071 360.701,557.571 381.5,565C 379.833,565.167 378.167,565.333 376.5,565.5C 356.778,561.521 337.112,557.854 317.5,554.5 Z"></path></g><g><path style="opacity:1" fill="#bebebf" d="M 506.5,572.5 C 506.827,581.682 506.493,590.682 505.5,599.5C 505.826,590.983 505.493,582.65 504.5,574.5C 504.833,573.5 505.5,572.833 506.5,572.5 Z"></path></g><g><path style="opacity:1" fill="#ded7f9" d="M 469.5,567.5 C 469.833,567.5 470.167,567.5 470.5,567.5C 470.811,572.223 470.145,576.723 468.5,581C 469.308,586.157 469.975,591.324 470.5,596.5C 469.766,595.122 469.099,593.622 468.5,592C 440.732,586.89 413.065,581.223 385.5,575C 392.174,574.788 398.841,575.121 405.5,576C 424.757,579.805 444.091,583.305 463.5,586.5C 464.5,586.167 465.5,585.833 466.5,585.5C 461.833,583.833 457.167,582.167 452.5,580.5C 456.095,580.552 459.761,580.218 463.5,579.5C 451.131,576.98 439.131,573.813 427.5,570C 441.377,571.92 455.377,573.753 469.5,575.5C 469.5,572.833 469.5,570.167 469.5,567.5 Z"></path></g><g><path style="opacity:1" fill="#f7f7f7" d="M 373.5,647.5 C 381.706,646.217 386.873,649.551 389,657.5C 390.625,665.613 388.792,672.78 383.5,679C 378.599,682.487 374.099,681.987 370,677.5C 363.205,666.433 364.371,656.433 373.5,647.5 Z"></path></g><g><path style="opacity:1" fill="#909090" d="M 281.5,655.5 C 279.485,656.924 277.152,657.59 274.5,657.5C 276.515,656.076 278.848,655.41 281.5,655.5 Z"></path></g><g><path style="opacity:1" fill="#e3e3e3" d="M 502.5,661.5 C 464.517,684.098 423.183,696.598 378.5,699C 359.803,699.182 341.136,699.349 322.5,699.5C 382.026,685.193 442.026,672.527 502.5,661.5 Z"></path></g></svg> 